# xmcd
# Track frame offsets:
# 150
# 13508
# 25909
# 38890
# 51643
# 64519
# 75186
# 88377
# 101631
# 111962
# 126893
#
# Disc length: 1842 seconds
# Revision: 0
# Processed by: cddbd v1.4PL0 Copyright (c) Steve Scherf et al.
# Submitted via: VisiTrax 2.9.3.171 - For more info visit www.synapsa.com
#
DISCID=8c07300b
DTITLE=Etta James - The Best of Etta James
DYEAR=1900
DGENRE=
TTITLE0=At Last
TTITLE1=Something's Got A Hold On Me
TTITLE2=All I Could Do Was Cry
TTITLE3=Stop The Wedding
TTITLE4=Pushover
TTITLE5=Don't Cry Baby
TTITLE6=Trust In Me
TTITLE7=My Dearest Darling
TTITLE8=Tell Mama
TTITLE9=Almost Persuaded
TTITLE10=I'd Rather Go Blind
EXTD=
EXTT0=
EXTT1=
EXTT2=
EXTT3=
EXTT4=
EXTT5=
EXTT6=
EXTT7=
EXTT8=
EXTT9=
EXTT10=
PLAYORDER=
